<svg width="193" height="16" viewBox="0 0 193 16" fill="none" xmlns="http://www.w3.org/2000/svg">
<path fill-rule="evenodd" clip-rule="evenodd" d="M9.60506 6.83392V0.946791H12.0925V16H9.60506V8.97001H2.4903V16H0V0.946791H2.4903V6.83392H9.60506ZM19.9818 16V0.946791H29.0865V3.08546H22.4749V6.69719H28.8943V8.83328H22.4749V13.8639H29.0837V16H19.9818ZM56.4459 16V0.946791H58.9278V13.8639H63.7953V16H56.4459ZM67.2863 3.0803V0.946791H77.3492V3.0803H73.5671V16H71.0797V3.0803H67.2863ZM93.1136 6.83392V0.946791H95.5955V16H93.1051V8.97001H85.9904V16H83.5029V0.946791H85.9904V6.83392H93.1136ZM44.9696 10.2083L42.5217 5.08997L39.9579 10.2083H44.9696ZM34.4035 15.9948L42.5641 0L50.4449 15.9948H47.72L45.9901 12.3392H38.9234L37.086 15.9948H34.4035ZM193 0.395996H183.616V15.4544H193V12.1522H187.912V9.54143H192.717V6.21863H187.912V3.70074H193V0.395996ZM162.721 0.395996V9.1235C162.721 11.466 163.311 13.1764 164.493 14.2548C165.675 15.3331 167.483 15.8723 169.917 15.8723C172.354 15.8723 174.159 15.3331 175.333 14.2548C176.507 13.1764 177.094 11.466 177.094 9.1235V0.395996H172.829V8.58432C172.829 9.02289 172.809 9.47178 172.772 9.93098C172.744 10.3624 172.63 10.7855 172.436 11.1796C172.247 11.5503 171.947 11.865 171.571 12.0877C171.069 12.3484 170.494 12.4703 169.917 12.4386C169.338 12.4692 168.761 12.3474 168.255 12.0877C167.875 11.8694 167.574 11.5535 167.39 11.1796C167.203 10.7838 167.092 10.3614 167.062 9.93098C167.026 9.47178 167.009 9.02289 167.009 8.58432V0.395996H162.721ZM145.721 0.395996H141.433V15.4544H145.721V9.24218H151.911V15.4544H156.2V0.395996H151.911V6.21863H145.721V0.395996ZM128.753 11.0368H129.779L129.931 9.97653C130.056 9.09166 130.389 7.88431 131.206 7.35545H131.302C131.354 7.47549 131.451 7.57479 131.576 7.63563C131.7 7.69647 131.845 7.7149 131.983 7.68763C132.121 7.66036 132.244 7.58916 132.33 7.48673C132.416 7.3843 132.46 7.25732 132.453 7.12842C132.457 7.05769 132.444 6.987 132.415 6.92117C132.387 6.85534 132.343 6.79591 132.287 6.74694C132.231 6.69798 132.164 6.66062 132.09 6.63741C132.017 6.6142 131.939 6.60569 131.862 6.61246C131.339 6.61246 130.731 7.04845 130.217 8.06232H130.121L130.321 7.31675C130.446 6.85754 130.285 6.61246 129.827 6.61246C129.307 6.65907 128.803 6.79845 128.343 7.02265V7.28063C128.413 7.27362 128.478 7.26682 128.538 7.26048C129.214 7.1899 129.335 7.17723 129.275 7.57731L128.753 11.0368ZM125.982 6.92978C127.181 6.92978 126.638 8.81304 124.47 8.73564C124.594 7.60827 125.279 6.92978 125.982 6.92978ZM126.087 6.6073C124.928 6.6073 123.662 7.43284 123.433 8.90849C123.252 10.0823 123.823 11.122 125.174 11.122C125.635 11.112 126.081 10.9737 126.454 10.7257C126.826 10.4776 127.106 10.1316 127.257 9.73403H127.04C126.875 9.94407 126.658 10.1151 126.406 10.2327C126.154 10.3503 125.875 10.4111 125.592 10.4099C124.965 10.4099 124.462 9.9688 124.462 9.0478C127.916 9.30578 128.439 6.6073 126.098 6.6073H126.087ZM121.923 7.89721C122.056 6.99427 121.742 6.6073 121.075 6.6073C120.408 6.6073 119.724 7.12326 119.21 8.02362H119.114L119.741 4.69824H119.481L117.805 4.87109V5.19357C118.631 5.19357 118.615 5.30131 118.553 5.70767L118.548 5.74049L117.74 11.0368H118.766L118.995 9.48895C119.196 8.15003 120.08 7.24709 120.527 7.24709C120.869 7.24709 120.934 7.50507 120.869 7.94364L120.479 10.4254C120.403 10.8949 120.555 11.1194 121.01 11.1194C121.532 11.078 122.041 10.943 122.506 10.7221V10.4641L122.374 10.4779C121.641 10.5549 121.5 10.5697 121.564 10.1597L121.923 7.89721ZM113.161 7.89721C113.305 6.94268 112.963 6.6073 112.313 6.6073C111.617 6.6073 110.961 7.12326 110.447 8.02362H110.354L110.552 7.31159C110.687 6.85238 110.515 6.6073 110.057 6.6073C109.538 6.65371 109.035 6.79311 108.576 7.01749V7.27547C108.646 7.26846 108.711 7.26165 108.771 7.25531C109.447 7.18474 109.568 7.1721 109.506 7.57215L108.983 11.0446H110.012L110.294 9.23871C110.467 8.09327 111.351 7.25741 111.778 7.25741C112.151 7.25741 112.18 7.63149 112.12 7.95396L111.73 10.4357C111.657 10.9053 111.807 11.1297 112.265 11.1297C112.786 11.0886 113.293 10.9536 113.757 10.7324V10.4744L113.624 10.4883C112.892 10.5652 112.754 10.5798 112.816 10.17L113.161 7.89721ZM105.704 10.4151C105.627 10.8846 105.78 11.1091 106.235 11.1091C106.757 11.0677 107.266 10.9327 107.731 10.7118V10.4538L107.599 10.4675C106.866 10.5446 106.725 10.5594 106.789 10.1494L107.236 7.28579C107.312 6.81627 107.16 6.58924 106.702 6.58924C106.182 6.63585 105.678 6.77523 105.218 6.99943V7.25741C105.248 7.25437 105.277 7.25136 105.306 7.24842C105.343 7.24462 105.378 7.24093 105.412 7.23738C106.089 7.1667 106.213 7.15379 106.15 7.55409L105.704 10.4151ZM106.331 5.35351C106.316 5.42861 106.32 5.50582 106.341 5.57957C106.363 5.65333 106.402 5.7218 106.456 5.78004C106.51 5.83828 106.578 5.88484 106.654 5.91637C106.73 5.94789 106.813 5.9636 106.897 5.96235C107.082 5.95891 107.26 5.896 107.4 5.78466C107.539 5.67332 107.631 5.52068 107.66 5.35351C107.676 5.27786 107.674 5.1998 107.653 5.12507C107.632 5.05034 107.593 4.98083 107.539 4.92168C107.485 4.86253 107.417 4.81522 107.34 4.78325C107.263 4.75128 107.179 4.73545 107.095 4.73694C106.907 4.74141 106.728 4.80549 106.587 4.91809C106.446 5.03069 106.352 5.18472 106.323 5.35351H106.331Z" fill="#F18A8D"/>
</svg>
